<?xml version="1.0" encoding="UTF-8" standalone="no"?>
<!-- Generated by IcoMoon.io -->

<svg
   xmlns:dc="http://purl.org/dc/elements/1.1/"
   xmlns:cc="http://creativecommons.org/ns#"
   xmlns:rdf="http://www.w3.org/1999/02/22-rdf-syntax-ns#"
   xmlns:svg="http://www.w3.org/2000/svg"
   xmlns="http://www.w3.org/2000/svg"
   xmlns:sodipodi="http://sodipodi.sourceforge.net/DTD/sodipodi-0.dtd"
   xmlns:inkscape="http://www.inkscape.org/namespaces/inkscape"
   version="1.1"
   width="768"
   height="768"
   viewBox="0 0 768 768"
   id="svg2"
   inkscape:version="0.91 r13725"
   sodipodi:docname="bug_report.svg">
  <metadata
     id="metadata11">
    <rdf:RDF>
      <cc:Work
         rdf:about="">
        <dc:format>image/svg+xml</dc:format>
        <dc:type
           rdf:resource="http://purl.org/dc/dcmitype/StillImage" />
        <dc:title></dc:title>
      </cc:Work>
    </rdf:RDF>
  </metadata>
  <defs
     id="defs9" />
  <sodipodi:namedview
     pagecolor="#ffffff"
     bordercolor="#666666"
     borderopacity="1"
     objecttolerance="10"
     gridtolerance="10"
     guidetolerance="10"
     inkscape:pageopacity="0"
     inkscape:pageshadow="2"
     inkscape:window-width="1855"
     inkscape:window-height="1056"
     id="namedview7"
     showgrid="false"
     inkscape:zoom="0.30729167"
     inkscape:cx="384"
     inkscape:cy="384"
     inkscape:window-x="1985"
     inkscape:window-y="24"
     inkscape:window-maximized="1"
     inkscape:current-layer="svg2" />
  <g
     id="icomoon-ignore" />
  <path
     d="m 640.5,256.5 0,63 -67.5,0 c 1.5,10.5 3,22.5 3,33 l 0,31.5 64.5,0 0,64.5 -64.5,0 0,31.5 c 0,10.5 -1.5,21 -3,31.5 l 67.5,0 0,64.5 -90,0 c -33,57 -96,96 -166.5,96 -70.5,0 -133.5,-39 -166.5,-96 l -90,0 0,-64.5 67.5,0 c -1.5,-10.5 -3,-21 -3,-31.5 l 0,-31.5 -64.5,0 0,-64.5 64.5,0 0,-31.5 c 0,-10.5 1.5,-22.5 3,-33 l -67.5,0 0,-63 90,0 C 232.5,231 252,210 276,193.5 l -52.5,-52.5 45,-45 70.5,69 c 15,-3 30,-4.5 45,-4.5 15,0 30,1.5 45,4.5 l 70.5,-69 45,45 -52.5,52.5 c 24,16.5 43.5,37.5 58.5,63 z"
     id="path5"
     inkscape:connector-curvature="0"
     style="fill:#ffffff"
     sodipodi:nodetypes="cccsccccsccccsccccsccccsccccccccscccccc" />
</svg>
