<?xml version="1.0" encoding="UTF-8" standalone="no"?>
<!-- Generated by IcoMoon.io -->

<svg
   xmlns:dc="http://purl.org/dc/elements/1.1/"
   xmlns:cc="http://creativecommons.org/ns#"
   xmlns:rdf="http://www.w3.org/1999/02/22-rdf-syntax-ns#"
   xmlns:svg="http://www.w3.org/2000/svg"
   xmlns="http://www.w3.org/2000/svg"
   xmlns:sodipodi="http://sodipodi.sourceforge.net/DTD/sodipodi-0.dtd"
   xmlns:inkscape="http://www.inkscape.org/namespaces/inkscape"
   version="1.1"
   width="512"
   height="512"
   viewBox="0 0 512 512"
   id="svg2"
   inkscape:version="0.48.4 r9939"
   sodipodi:docname="closeThick-wht.svg">
  <metadata
     id="metadata11">
    <rdf:RDF>
      <cc:Work
         rdf:about="">
        <dc:format>image/svg+xml</dc:format>
        <dc:type
           rdf:resource="http://purl.org/dc/dcmitype/StillImage" />
      </cc:Work>
    </rdf:RDF>
  </metadata>
  <defs
     id="defs9" />
  <sodipodi:namedview
     pagecolor="#ffffff"
     bordercolor="#666666"
     borderopacity="1"
     objecttolerance="10"
     gridtolerance="10"
     guidetolerance="10"
     inkscape:pageopacity="0"
     inkscape:pageshadow="2"
     inkscape:window-width="640"
     inkscape:window-height="480"
     id="namedview7"
     showgrid="false"
     inkscape:zoom="0.4609375"
     inkscape:cx="256"
     inkscape:cy="256"
     inkscape:window-x="75"
     inkscape:window-y="34"
     inkscape:window-maximized="0"
     inkscape:current-layer="svg2" />
  <g
     id="icomoon-ignore" />
  <path
     d="M507.331 411.33c-0.002-0.002-0.004-0.004-0.006-0.005l-155.322-155.325 155.322-155.325c0.002-0.002 0.004-0.003 0.006-0.005 1.672-1.673 2.881-3.627 3.656-5.708 2.123-5.688 0.912-12.341-3.662-16.915l-73.373-73.373c-4.574-4.573-11.225-5.783-16.914-3.66-2.080 0.775-4.035 1.984-5.709 3.655 0 0.002-0.002 0.003-0.004 0.005l-155.324 155.326-155.324-155.325c-0.002-0.002-0.003-0.003-0.005-0.005-1.673-1.671-3.627-2.88-5.707-3.655-5.69-2.124-12.341-0.913-16.915 3.66l-73.374 73.374c-4.574 4.574-5.784 11.226-3.661 16.914 0.776 2.080 1.985 4.036 3.656 5.708 0.002 0.001 0.003 0.003 0.005 0.005l155.325 155.324-155.325 155.326c-0.001 0.002-0.003 0.003-0.004 0.005-1.671 1.673-2.88 3.627-3.657 5.707-2.124 5.688-0.913 12.341 3.661 16.915l73.374 73.373c4.575 4.574 11.226 5.784 16.915 3.661 2.080-0.776 4.035-1.985 5.708-3.656 0.001-0.002 0.003-0.003 0.005-0.005l155.324-155.325 155.324 155.325c0.002 0.001 0.004 0.003 0.006 0.004 1.674 1.672 3.627 2.881 5.707 3.657 5.689 2.123 12.342 0.913 16.914-3.661l73.373-73.374c4.574-4.574 5.785-11.227 3.662-16.915-0.776-2.080-1.985-4.034-3.657-5.707z"
     id="path5"
     style="fill:#ffffff" />
</svg>
