<?xml version="1.0" encoding="UTF-8" standalone="no"?>
<!-- Generated by IcoMoon.io -->

<svg
   xmlns:dc="http://purl.org/dc/elements/1.1/"
   xmlns:cc="http://creativecommons.org/ns#"
   xmlns:rdf="http://www.w3.org/1999/02/22-rdf-syntax-ns#"
   xmlns:svg="http://www.w3.org/2000/svg"
   xmlns="http://www.w3.org/2000/svg"
   xmlns:sodipodi="http://sodipodi.sourceforge.net/DTD/sodipodi-0.dtd"
   xmlns:inkscape="http://www.inkscape.org/namespaces/inkscape"
   version="1.1"
   width="768"
   height="768"
   viewBox="0 0 768 768"
   id="svg7"
   sodipodi:docname="lock.svg"
   inkscape:version="0.92.3 (2405546, 2018-03-11)">
  <metadata
     id="metadata13">
    <rdf:RDF>
      <cc:Work
         rdf:about="">
        <dc:format>image/svg+xml</dc:format>
        <dc:type
           rdf:resource="http://purl.org/dc/dcmitype/StillImage" />
      </cc:Work>
    </rdf:RDF>
  </metadata>
  <defs
     id="defs11" />
  <sodipodi:namedview
     pagecolor="#ffffff"
     bordercolor="#666666"
     borderopacity="1"
     objecttolerance="10"
     gridtolerance="10"
     guidetolerance="10"
     inkscape:pageopacity="0"
     inkscape:pageshadow="2"
     inkscape:window-width="1853"
     inkscape:window-height="1025"
     id="namedview9"
     showgrid="false"
     inkscape:zoom="0.30729167"
     inkscape:cx="-143.18644"
     inkscape:cy="384"
     inkscape:window-x="67"
     inkscape:window-y="27"
     inkscape:window-maximized="1"
     inkscape:current-layer="svg7" />
  <title
     id="title2" />
  <g
     id="icomoon-ignore" />
  <path
     fill="#000"
     d="M483 256.5v-64.5c0-54-45-99-99-99s-99 45-99 99v64.5h198zM384 544.5c34.5 0 64.5-30 64.5-64.5s-30-64.5-64.5-64.5-64.5 30-64.5 64.5 30 64.5 64.5 64.5zM576 256.5c34.5 0 64.5 28.5 64.5 63v321c0 34.5-30 63-64.5 63h-384c-34.5 0-64.5-28.5-64.5-63v-321c0-34.5 30-63 64.5-63h31.5v-64.5c0-88.5 72-160.5 160.5-160.5s160.5 72 160.5 160.5v64.5h31.5z"
     id="path5"
     style="fill:#999999;fill-opacity:1" />
</svg>
