<svg version="1.1" viewBox="0 0 96 96" xmlns="http://www.w3.org/2000/svg" xmlns:xlink="http://www.w3.org/1999/xlink" id="Icons_MoonAndStars" overflow="hidden"><style>
.MsftOfcThm_Accent5_lumMod_75_Fill {
 fill:#2E75B6; 
}
</style>
<path d=" M 47 12.5 C 43.3 10.7 39.5 9.5 35.7 9 C 46.7 19.9 50 37 42.7 51.7 C 35.5 66.4 19.7 74 4.5 71.9 C 7.2 74.6 10.5 77 14.1 78.8 C 32.4 87.9 54.6 80.4 63.6 62.1 C 72.6 43.8 65.3 21.7 47 12.5 Z" stroke="none" stroke-width="1" stroke-dasharray="" stroke-dashoffset="1" fill="#2E75B6" fill-opacity="1"/><path d=" M 86.9 54.5 C 86.7 54.2 86.7 53.8 86.9 53.5 L 88.8 50.7 C 89 50.3 89 49.9 88.8 49.6 C 88.6 49.3 88.1 49.1 87.8 49.2 L 84.7 50 C 84.3 50.1 83.9 49.9 83.7 49.6 L 81.8 46.8 C 81.5 46.4 81.1 46.3 80.7 46.4 C 80.3 46.5 80 46.9 80 47.3 L 79.8 50.7 C 79.8 51.1 79.5 51.4 79.1 51.6 L 76 52.3 C 75.6 52.4 75.3 52.7 75.3 53.2 C 75.3 53.6 75.5 54 75.9 54.1 L 77.2 54.8 L 78.9 55.7 C 79 55.8 79.2 55.9 79.3 56.1 C 79.4 56.3 79.4 56.4 79.4 56.6 L 79.4 60 C 79.4 60.4 79.6 60.8 80 60.9 C 80.4 61 80.8 60.9 81.1 60.6 L 83.3 57.9 C 83.6 57.6 84 57.5 84.4 57.6 L 87.7 58.8 C 88.1 58.9 88.5 58.8 88.8 58.5 C 89.1 58.2 89.1 57.7 88.9 57.4 L 86.9 54.5 Z" stroke="none" stroke-width="1" stroke-dasharray="" stroke-dashoffset="1" fill="#2E75B6" fill-opacity="1"/><path d=" M 77.4 29.6 L 80.1 24.7 C 80.4 24.1 81 23.8 81.7 23.9 L 87.2 24.8 C 87.9 24.9 88.5 24.6 88.8 24 C 89.1 23.4 89 22.6 88.6 22.2 L 84.8 18.1 C 84.4 17.7 84.3 17 84.5 16.4 L 86.6 11.3 C 86.8 10.7 86.7 10 86.3 9.6 C 85.9 9.2 85.1 9 84.6 9.3 L 79.9 11.6 C 79.3 11.9 78.6 11.7 78.2 11.3 L 74.4 7.5 C 73.9 7 73.1 6.9 72.5 7.1 C 71.9 7.4 71.6 8.1 71.6 8.7 L 72.3 14 C 72.4 14.7 72.1 15.3 71.5 15.6 L 66.8 17.9 C 66.2 18.2 65.9 18.8 66 19.5 C 66.1 20.1 66.6 20.7 67.2 20.8 L 69.5 21.5 L 72.5 22.4 C 72.8 22.5 73 22.7 73.3 22.9 C 73.5 23.1 73.6 23.4 73.7 23.7 L 74.6 29.2 C 74.7 29.9 75.2 30.4 75.9 30.5 C 76.6 30.6 77.1 30.2 77.4 29.6 Z" stroke="none" stroke-width="1" stroke-dasharray="" stroke-dashoffset="1" fill="#2E75B6" fill-opacity="1"/></svg>